<svg width="596" height="1137" viewBox="0 0 596 1137" fill="none" xmlns="http://www.w3.org/2000/svg">
<g id="View=Anterior, Color=White">
<g id="Group 2">
<path id="Vector (Stroke)" fill-rule="evenodd" clip-rule="evenodd" d="M263.229 15.6991C255.435 23.4159 251.13 32.3429 249.588 37.1526C248.365 40.9674 247.976 47.6006 248.003 54.4075C248.029 61.1912 248.465 68.07 248.86 72.3289C248.883 72.5743 248.723 72.7996 248.484 72.8599C248.245 72.9201 247.998 72.7972 247.902 72.5703C247.628 71.9253 247.085 70.9773 246.363 70.2488C245.635 69.514 244.814 69.0851 243.951 69.2419C242.967 69.4209 242.021 69.8192 241.24 70.5359C240.462 71.2504 239.818 72.3082 239.479 73.857C239.274 74.7913 239.18 75.9052 239.236 77.2287C239.36 80.1378 239.794 83.6423 240.461 86.8675C241.131 90.1067 242.024 93.0084 243.043 94.7471C243.589 95.6773 244.137 96.8398 244.692 98.0311C244.739 98.1314 244.786 98.2319 244.832 98.3325C245.346 99.4371 245.868 100.559 246.412 101.577C247.008 102.691 247.611 103.642 248.229 104.287C248.851 104.937 249.407 105.194 249.925 105.129C251.344 104.952 252.109 104.518 252.56 104.079C252.983 103.669 253.172 103.221 253.352 102.797C253.369 102.757 253.385 102.717 253.402 102.678C253.431 102.61 253.469 102.533 253.518 102.463C253.549 102.419 253.668 102.252 253.895 102.213C254.199 102.159 254.382 102.365 254.44 102.45C254.501 102.539 254.531 102.634 254.548 102.691C254.613 102.921 254.651 103.324 254.688 103.771C254.7 103.906 254.711 104.051 254.723 104.204C254.797 105.124 254.895 106.352 255.106 107.671C255.201 108.268 255.297 109.037 255.406 109.904C255.441 110.187 255.478 110.48 255.516 110.781C255.673 112.013 255.86 113.393 256.109 114.787C256.61 117.599 257.347 120.377 258.524 122.092C258.58 122.174 258.611 122.271 258.612 122.37C258.668 128.465 258.738 138.901 258.719 145.876C258.71 149.331 258.679 151.969 258.61 152.792C258.535 153.697 258.009 154.616 257.245 155.515C256.472 156.424 255.406 157.371 254.151 158.334C251.639 160.262 248.302 162.306 244.863 164.307C237.952 168.329 226.044 173.716 211.9 178.598C205.318 180.869 200.67 181.578 196.163 182.266C195.801 182.321 195.44 182.376 195.079 182.432C190.239 183.179 185.374 184.046 178.175 186.963C177.372 187.289 176.593 187.602 175.837 187.906L175.312 188.118C169.023 190.65 164.329 192.579 159.954 195.691C155.587 198.796 151.513 203.099 146.525 210.407C135.869 226.019 134.862 247.128 134.862 258.125C134.862 266.938 134.445 275.316 134.236 278.409C134.23 278.489 134.206 278.567 134.164 278.636C132.334 281.629 129.464 286.533 126.803 291.511C124.135 296.501 121.699 301.523 120.715 304.77C119.861 307.591 118.495 311.463 116.987 315.741C116.283 317.737 115.548 319.822 114.819 321.929C112.521 328.572 110.282 335.449 109.227 340.6C107.569 348.695 105.814 351.78 102.573 357.481C101.622 359.152 100.544 361.048 99.3025 363.361C98.8492 364.206 98.3892 365.055 97.9227 365.916C92.7335 375.492 86.7419 386.548 80.2186 410.009C76.662 422.8 74.1652 435.345 72.0404 446.376C71.8555 447.336 71.6734 448.284 71.4936 449.221C69.61 459.031 67.9818 467.512 66.0897 473.647C64.0231 480.348 60.4881 490.389 57.3309 498.939C55.752 503.215 54.2662 507.121 53.1041 510.053C52.5232 511.519 52.0221 512.745 51.63 513.653C51.4341 514.106 51.2639 514.484 51.1235 514.775C50.9898 515.051 50.8656 515.287 50.7619 515.425C50.5754 515.674 50.3019 515.906 49.9964 516.121C49.6856 516.34 49.3147 516.558 48.91 516.772C48.1005 517.2 47.125 517.625 46.1563 518.011C44.2181 518.784 42.2663 519.413 41.6306 519.604C40.6621 519.894 37.8579 521.04 36.5553 521.586L36.5542 521.587C32.09 523.447 27.7478 526.053 26.0275 527.282C25.2762 527.818 24.595 528.502 23.8742 529.225C23.7958 529.304 23.7169 529.383 23.6373 529.463C22.8421 530.258 21.9906 531.081 20.9941 531.679C20.3257 532.08 19.4196 532.561 18.4631 533.068C18.0597 533.283 17.6472 533.502 17.2399 533.721C15.8443 534.474 14.5068 535.236 13.6708 535.893C11.9384 537.254 9.72548 539.349 8.63689 540.8C8.14897 541.451 7.97359 541.935 7.79806 542.42L7.76929 542.499C7.57212 543.041 7.35394 543.59 6.71544 544.229C6.17065 544.773 5.40932 545.368 4.62853 545.977L4.43548 546.128C3.57369 546.802 2.69079 547.503 1.96544 548.229C1.34508 548.849 0.872155 550.186 1.03051 551.568C1.18411 552.909 1.92556 554.234 3.66739 554.909C5.49454 555.616 7.708 555.684 9.84935 555.29C11.9898 554.895 14.0086 554.046 15.4369 552.975C16.8924 551.883 17.7699 550.886 18.4918 550.01C18.5804 549.902 18.6676 549.796 18.754 549.69C19.3606 548.946 19.9283 548.25 20.7023 547.714C21.5561 547.123 22.9366 546.419 24.3159 545.864C25.6783 545.316 27.1319 544.875 28.1119 544.875C28.2818 544.875 28.4401 544.961 28.5321 545.104C28.6242 545.247 28.6375 545.427 28.5673 545.581C27.3592 548.248 24.6 554.54 23.2075 558.419C21.6675 562.709 19.2433 572.483 17.9239 577.803C17.7534 578.491 17.6013 579.104 17.472 579.621C16.3473 584.12 14.3502 592.483 13.3531 597.719C12.3497 602.986 11.1091 609.943 10.9863 612.4C10.9699 612.727 10.9317 613.135 10.888 613.601C10.754 615.029 10.5691 617 10.8108 618.841C10.9694 620.05 11.3068 621.128 11.9181 621.911C12.5122 622.672 13.3959 623.194 14.7577 623.25C17.4778 623.364 19.2749 621.566 20.4579 619.473C21.5486 617.543 22.0465 615.479 22.2166 614.773C22.2305 614.716 22.2422 614.667 22.2518 614.629C22.3283 614.323 22.5132 613.297 22.7506 611.964L22.8156 611.599C23.0362 610.36 23.2907 608.93 23.5323 607.657C23.8088 606.199 24.0769 604.899 24.2626 604.342C24.4082 603.905 24.7635 602.712 25.2506 601.078C25.9826 598.62 27.0124 595.164 28.0754 591.772C28.7328 589.675 29.4009 587.609 30.0144 585.836C31.1393 582.587 31.9222 580.363 32.4869 578.842C33.0472 577.332 33.4041 576.481 33.6778 576.002C33.8581 575.686 34.1338 575.456 34.4944 575.427C34.8268 575.401 35.1034 575.559 35.2849 575.717C35.4714 575.881 35.6207 576.097 35.7046 576.319C35.7782 576.514 35.8514 576.855 35.6529 577.152C35.5528 577.303 35.1606 578.02 34.7103 579.045C34.2641 580.06 33.7764 581.343 33.4733 582.616C33.256 583.529 32.6651 585.711 31.9507 588.35C31.6306 589.532 31.2857 590.806 30.9385 592.098C29.8119 596.292 28.6608 600.68 28.2272 602.848C27.794 605.014 27.6084 606.591 27.437 608.148L27.4006 608.48C27.2419 609.931 27.0806 611.405 26.7288 613.339C26.5217 614.479 26.2245 615.819 25.9065 617.254C25.6502 618.41 25.3804 619.627 25.1332 620.849C24.5721 623.624 24.1119 626.49 24.1119 629C24.1119 631.544 24.3942 633.575 25.0619 634.954C25.3917 635.635 25.8072 636.14 26.3141 636.476C26.8185 636.811 27.4457 637 28.2369 637C31.4664 637 32.9598 634.821 33.4278 634.002C33.903 633.17 35.3851 629.717 35.9993 627.014C36.3009 625.687 36.7216 623.412 37.1341 621.182L37.1671 621.003C37.5872 618.731 37.997 616.523 38.2518 615.504C38.3603 615.07 38.6396 613.87 39.025 612.215C39.5257 610.063 40.2056 607.143 40.9224 604.134C42.185 598.834 43.5666 593.242 44.2641 591.212C44.6067 590.216 44.9339 589.226 45.2425 588.291L45.3064 588.097C45.5909 587.234 45.8594 586.42 46.1078 585.697C46.3741 584.921 46.6206 584.241 46.842 583.711C46.9527 583.447 47.0603 583.212 47.1641 583.019C47.2634 582.834 47.3771 582.653 47.5084 582.521C48.0132 582.017 48.7305 582.047 49.2105 582.287C49.4575 582.411 49.6915 582.611 49.8242 582.887C49.9648 583.179 49.9727 583.521 49.8091 583.849L49.8084 583.85C49.8073 583.852 49.805 583.857 49.8015 583.866C49.7964 583.878 49.79 583.893 49.7821 583.913C49.7663 583.954 49.7466 584.007 49.7229 584.073C49.6757 584.205 49.6157 584.382 49.5442 584.599C49.4014 585.034 49.2155 585.625 48.9982 586.334C48.5638 587.752 48.0061 589.639 47.421 591.699C46.2493 595.823 44.973 600.619 44.3522 603.723C43.7869 606.549 43.453 608.835 43.1502 610.908C43.1198 611.116 43.0897 611.322 43.0597 611.526C42.7314 613.761 42.4158 615.784 41.8462 618C41.7722 618.287 41.6865 618.61 41.5928 618.964C40.9659 621.328 39.9837 625.032 39.7829 628.405C39.6674 630.345 39.8165 632.11 40.3956 633.423C40.9581 634.699 41.9256 635.558 43.5468 635.754C45.1408 635.946 46.506 635.219 47.7054 633.857C48.9122 632.486 49.9022 630.521 50.7065 628.386C51.9787 625.01 52.7434 621.341 53.1991 619.154C53.3202 618.573 53.4195 618.097 53.5007 617.758C53.8646 616.242 54.662 613.544 55.4423 610.903L55.5387 610.577C56.3549 607.814 57.1279 605.184 57.3726 604.022C57.8721 601.65 59.6278 594.12 60.6397 591.211C60.81 590.721 60.9961 590.146 61.1936 589.536C61.5589 588.407 61.9635 587.157 62.3811 586.098C62.7043 585.278 63.0536 584.522 63.4264 583.987C63.6121 583.721 63.8251 583.478 64.071 583.315C64.3276 583.146 64.647 583.048 64.9935 583.143C65.4335 583.263 65.6126 583.651 65.68 583.964C65.749 584.283 65.7408 584.672 65.6969 585.076C65.608 585.892 65.3515 586.938 65.0454 587.998C64.7374 589.064 64.3712 590.171 64.0525 591.115C63.9866 591.31 63.9231 591.497 63.8627 591.676C63.6272 592.37 63.4387 592.926 63.3427 593.262C63.1011 594.108 62.7936 595.765 62.4787 597.481L62.4432 597.674C62.1443 599.304 61.8418 600.954 61.595 601.879C61.5151 602.178 61.3932 602.616 61.2427 603.156C60.8706 604.49 60.3242 606.449 59.8083 608.497C59.2019 610.904 58.6511 613.383 58.4844 615.05C58.2963 616.931 58.2508 618.603 58.7207 619.856C58.9499 620.467 59.2987 620.968 59.8131 621.348C60.3306 621.73 61.0469 622.011 62.0453 622.128C62.8718 622.226 63.6844 621.794 64.4917 620.895C65.2947 620 66.0157 618.722 66.6408 617.341C67.2629 615.966 67.776 614.52 68.1741 613.31C68.3432 612.797 68.4947 612.315 68.6252 611.899C68.7949 611.359 68.9291 610.933 69.0202 610.695C69.3263 609.9 70.571 606.136 71.7921 602.332C73.0163 598.518 74.1923 594.739 74.373 593.895C74.5698 592.977 75.3975 590.564 76.3312 588.074C77.2689 585.574 78.3393 582.927 79.0397 581.526C79.6986 580.208 80.6817 577.183 81.6479 573.619C82.6182 570.041 83.5574 565.973 84.119 562.666C84.4022 560.999 84.7636 559.278 85.1306 557.549L85.1947 557.247C85.5414 555.613 85.8895 553.974 86.1823 552.349C86.8051 548.893 87.1677 545.551 86.7419 542.571C86.6998 542.276 86.6585 541.989 86.6182 541.709C85.824 536.192 85.4334 533.478 87.2754 529.058C87.9727 527.384 88.712 525.482 89.4564 523.568C90.6918 520.39 91.9413 517.177 93.0366 514.908C93.115 514.745 93.2023 514.563 93.2993 514.36C95.3799 510.013 101.91 496.367 120.089 472.447C139.051 447.497 151.013 419.441 154.246 402.78C156.845 389.384 158.995 377.204 159.744 372.791C159.754 372.731 159.775 372.674 159.806 372.621C171.115 353.436 179.732 337.371 184.776 319.489C184.836 319.277 185.027 319.129 185.247 319.125C185.468 319.121 185.665 319.261 185.733 319.471C187.049 323.524 189.208 329.138 191.419 334.888C191.825 335.942 192.232 337.001 192.636 338.055C195.236 344.842 197.713 351.468 198.722 355.504C199.721 359.501 200.34 361.602 200.955 363.23C201.416 364.452 201.874 365.408 202.499 366.713C202.708 367.149 202.936 367.624 203.189 368.162L203.377 368.56C205.309 372.664 207.241 376.764 207.735 381.826C207.838 382.883 208.016 384.224 208.237 385.806C208.294 386.215 208.353 386.639 208.415 387.078C209.258 393.081 210.487 401.834 210.487 411C210.487 417.175 209.345 422.913 208.234 428.503L208.196 428.691C207.07 434.355 205.988 439.865 206.112 445.614C206.192 449.354 206.299 452.408 206.406 454.979C206.479 456.746 206.554 458.289 206.62 459.672C206.757 462.517 206.862 464.688 206.862 466.75C206.862 467.953 206.53 469.389 206.025 471.091C205.727 472.097 205.359 473.224 204.952 474.472C204.67 475.337 204.368 476.261 204.057 477.244C202.531 482.071 200.728 488.479 199.608 497.065C198.747 503.664 197.904 508.529 197.15 512.613C196.972 513.574 196.8 514.492 196.633 515.377C196.092 518.256 195.614 520.799 195.227 523.447C194.914 525.585 194.662 527.789 194.486 530.285C194.485 530.3 194.483 530.315 194.48 530.33C191.609 548.084 185.824 588.973 185.625 610.63C185.447 629.904 186.531 651.865 187.264 666.7C187.562 672.739 187.802 677.598 187.875 680.613C188.124 690.962 189.496 705.295 192.983 718.245C193.314 719.475 193.671 720.723 194.047 721.982C194.942 724.982 195.94 728.045 196.94 731.092L197.178 731.818C198.097 734.619 199.011 737.402 199.835 740.098C201.623 745.944 203.01 751.432 203.125 755.862C203.243 760.431 202.554 763.347 201.774 766.644C201.72 766.872 201.666 767.101 201.612 767.333C200.773 770.905 199.874 775.117 199.75 782.508C199.5 797.363 200.374 812.597 200.624 816.594C200.642 816.89 200.613 817.343 200.554 817.906C200.494 818.479 200.399 819.199 200.276 820.046C200.028 821.741 199.664 823.964 199.225 826.579C199.062 827.551 198.889 828.577 198.708 829.652C197.913 834.362 196.963 839.993 196.041 845.982C193.774 860.71 191.691 877.529 192.498 888.087C193.894 906.34 198.986 938.366 202.214 958.673C202.74 961.979 203.216 964.973 203.619 967.548C204.042 970.25 204.533 973.266 205.058 976.496C206.318 984.235 207.777 993.203 208.98 1002.03C210.682 1014.52 211.878 1026.79 211.248 1034.91C210.623 1042.98 210.185 1047.27 209.903 1049.99L209.882 1050.2C209.616 1052.77 209.5 1053.89 209.5 1055.62C209.5 1057.27 209.872 1059.32 210.282 1061.58L210.367 1062.05C210.803 1064.47 211.25 1067.07 211.25 1069.5C211.25 1071.29 211.339 1072.9 211.417 1074.29C211.441 1074.73 211.465 1075.16 211.484 1075.55C211.523 1076.38 211.543 1077.11 211.513 1077.73C211.483 1078.35 211.401 1078.9 211.205 1079.33C210.937 1079.92 210.518 1080.51 210.072 1081.15C209.957 1081.31 209.84 1081.47 209.724 1081.64C209.14 1082.49 208.506 1083.49 207.963 1084.81C207.531 1085.87 207.352 1086.84 207.174 1087.8C207.129 1088.04 207.085 1088.28 207.037 1088.52C206.797 1089.72 206.464 1090.91 205.511 1092.07C205.013 1092.67 204.149 1093.35 203.135 1094.11C202.9 1094.28 202.654 1094.47 202.399 1094.65C199.447 1096.84 195.314 1099.91 192.554 1104.51C190.531 1107.88 189.582 1111.25 189.23 1114.06C188.877 1116.89 189.129 1119.12 189.477 1120.22C189.655 1120.79 189.825 1121.14 189.97 1121.36C190.111 1121.58 190.236 1121.69 190.351 1121.79C190.448 1121.87 190.658 1122.02 190.795 1122.24C190.948 1122.48 191 1122.77 191 1123.12C191 1123.64 191.243 1124.51 191.731 1125.26C192.218 1126 192.866 1126.5 193.625 1126.5C194.6 1126.5 195.33 1126.41 195.816 1126.27C196.059 1126.2 196.219 1126.12 196.313 1126.06C196.366 1126.02 196.387 1126 196.393 1125.99C196.457 1125.76 196.675 1125.61 196.913 1125.63C197.156 1125.65 197.351 1125.84 197.373 1126.08C197.453 1126.96 197.628 1127.74 197.922 1128.31C198.21 1128.88 198.583 1129.19 199.071 1129.26C200.341 1129.44 201.482 1129.4 202.343 1129.15C203.2 1128.89 203.713 1128.45 203.897 1127.85C203.965 1127.63 204.177 1127.49 204.408 1127.5C204.64 1127.52 204.83 1127.69 204.868 1127.92C205.011 1128.78 205.329 1129.54 205.882 1130.09C206.425 1130.62 207.245 1131 208.5 1131C209.718 1131 210.545 1130.61 211.116 1130.05C211.698 1129.48 212.051 1128.7 212.239 1127.89C212.298 1127.63 212.546 1127.46 212.805 1127.51C213.065 1127.55 213.248 1127.78 213.224 1128.05C213.131 1129.07 213.304 1130.61 214.099 1131.87C214.872 1133.1 216.265 1134.12 218.75 1134.12C220.327 1134.12 221.403 1133.76 222.149 1133.25C222.896 1132.74 223.354 1132.06 223.647 1131.34C223.942 1130.62 224.064 1129.89 224.143 1129.29C224.154 1129.2 224.165 1129.11 224.175 1129.03C224.2 1128.83 224.222 1128.65 224.247 1128.51C224.265 1128.41 224.29 1128.29 224.328 1128.19C224.356 1128.11 224.437 1127.91 224.651 1127.8C225.003 1127.63 225.499 1127.56 225.906 1127.56C226.118 1127.56 226.334 1127.58 226.525 1127.62C226.691 1127.66 226.932 1127.73 227.103 1127.9C227.225 1128.02 227.261 1128.17 227.274 1128.22C227.291 1128.3 227.299 1128.38 227.303 1128.45C227.31 1128.6 227.307 1128.77 227.302 1128.96C227.292 1129.34 227.274 1129.82 227.296 1130.34C227.342 1131.4 227.558 1132.48 228.228 1133.15C229 1133.92 229.939 1134.62 231.294 1135.11C232.654 1135.6 234.46 1135.87 236.975 1135.75C243.19 1135.45 246.904 1131.81 249.132 1128.04C251.04 1124.81 251.826 1121.55 252.144 1120.23C252.199 1120 252.24 1119.83 252.271 1119.73C252.323 1119.56 252.41 1119.33 252.516 1119.06C253.229 1117.21 254.782 1113.18 252.065 1108.37C251.632 1107.61 251.236 1106.93 250.878 1106.31C250.278 1105.28 249.788 1104.44 249.427 1103.71C249.134 1103.12 248.912 1102.58 248.773 1102.04C248.414 1100.64 248.652 1099.36 249.41 1097.44C249.823 1096.39 250.314 1095.35 250.812 1094.3L250.941 1094.03C251.398 1093.07 251.857 1092.11 252.273 1091.12C253.183 1088.96 253.875 1086.72 253.875 1084.25C253.875 1081.74 253.54 1080.32 253.221 1079.15C253.189 1079.03 253.156 1078.91 253.124 1078.8C252.834 1077.75 252.566 1076.79 252.625 1075.35C252.654 1074.65 252.729 1073.51 252.823 1072.07C253.138 1067.26 253.663 1059.2 253.376 1054.03C253.285 1052.4 252.836 1050.35 252.202 1047.95C251.886 1046.75 251.526 1045.47 251.146 1044.12C250.766 1042.76 250.365 1041.34 249.97 1039.85C248.388 1033.9 246.874 1026.94 247 1019.62C247.251 1005.08 251.381 971.402 258.774 948.596C266.12 925.937 265.749 906.762 264.376 889.79C263.875 883.594 262.491 876.79 261.078 869.84C260.56 867.296 260.039 864.732 259.555 862.171C257.759 852.656 256.489 843.197 258.009 835.157C259.516 827.181 261.714 820.683 263.683 814.977L263.91 814.323C265.789 808.883 267.411 804.19 268.004 799.561C268.625 794.72 268.781 786.847 268.922 779.678L268.923 779.633C268.993 776.074 269.059 772.693 269.178 769.966C269.238 768.598 269.311 767.388 269.405 766.399C269.498 765.421 269.615 764.626 269.771 764.106C270.075 763.093 270.569 760.635 271.138 757.413C272.603 749.12 274.517 736.024 274.876 730.468C275.048 727.806 276.025 722.58 277.327 716.396C278.632 710.199 280.273 702.997 281.787 696.355L281.788 696.348L282.092 695.014C283.426 689.158 284.633 683.836 285.385 680.15C285.608 679.059 285.857 677.864 286.126 676.572C288.883 663.336 293.738 640.031 293.625 616.627V603.534C293.625 603.391 293.686 603.254 293.794 603.159C293.901 603.065 294.044 603.02 294.187 603.038C295.3 603.177 296.486 603.25 297.75 603.25C299.013 603.25 300.199 603.177 301.313 603.038C301.455 603.02 301.598 603.065 301.706 603.159C301.813 603.254 301.875 603.391 301.875 603.534V616.627C301.761 640.031 306.617 663.336 309.374 676.572C309.643 677.864 309.892 679.059 310.115 680.15C310.867 683.836 312.073 689.158 313.407 695.014L313.711 696.348L313.713 696.355C315.226 702.997 316.867 710.199 318.172 716.396C319.475 722.58 320.452 727.806 320.624 730.468C320.982 736.024 322.897 749.12 324.361 757.413C324.93 760.635 325.425 763.093 325.729 764.106C325.885 764.626 326.001 765.421 326.095 766.399C326.189 767.388 326.262 768.598 326.322 769.966C326.441 772.693 326.507 776.074 326.577 779.633L326.578 779.678C326.719 786.847 326.875 794.72 327.496 799.561C328.089 804.19 329.711 808.883 331.59 814.323L331.816 814.977C333.786 820.683 335.984 827.181 337.491 835.157C339.01 843.197 337.741 852.656 335.944 862.171C335.461 864.732 334.939 867.296 334.422 869.84C333.008 876.79 331.624 883.594 331.123 889.79C329.75 906.762 329.38 925.937 336.725 948.596C344.119 971.402 348.249 1005.08 348.5 1019.62C348.626 1026.94 347.112 1033.9 345.53 1039.85C345.134 1041.34 344.734 1042.76 344.354 1044.12L344.329 1044.2C343.958 1045.53 343.607 1046.78 343.298 1047.95C342.663 1050.35 342.215 1052.4 342.124 1054.03C341.836 1059.2 342.362 1067.26 342.677 1072.07C342.77 1073.51 342.845 1074.65 342.874 1075.35C342.934 1076.79 342.666 1077.75 342.375 1078.8C342.343 1078.91 342.311 1079.03 342.279 1079.15C341.959 1080.32 341.625 1081.74 341.625 1084.25C341.625 1086.72 342.316 1088.96 343.226 1091.12C343.643 1092.11 344.101 1093.07 344.559 1094.03L344.688 1094.3C345.185 1095.35 345.677 1096.39 346.09 1097.44C346.848 1099.36 347.086 1100.64 346.726 1102.04C346.588 1102.58 346.366 1103.12 346.073 1103.71C345.711 1104.44 345.222 1105.28 344.621 1106.31C344.264 1106.93 343.867 1107.61 343.435 1108.37C340.717 1113.18 342.271 1117.21 342.984 1119.06C343.089 1119.33 343.177 1119.56 343.229 1119.73C343.259 1119.83 343.301 1120 343.356 1120.23C343.674 1121.55 344.46 1124.81 346.368 1128.04C348.596 1131.81 352.309 1135.45 358.524 1135.75C361.039 1135.87 362.846 1135.6 364.206 1135.11C365.56 1134.62 366.5 1133.92 367.271 1133.15C367.942 1132.48 368.157 1131.4 368.203 1130.34C368.223 1129.89 368.211 1129.47 368.201 1129.11L368.197 1128.96C368.192 1128.77 368.189 1128.6 368.197 1128.45C368.201 1128.38 368.209 1128.3 368.226 1128.22C368.239 1128.17 368.275 1128.02 368.396 1127.9C368.568 1127.73 368.809 1127.66 368.975 1127.62C369.166 1127.58 369.382 1127.56 369.594 1127.56C370 1127.56 370.497 1127.63 370.848 1127.8C371.063 1127.91 371.144 1128.11 371.172 1128.19C371.21 1128.29 371.234 1128.41 371.252 1128.51C371.288 1128.71 371.319 1129 371.357 1129.29C371.436 1129.89 371.558 1130.62 371.853 1131.34C372.146 1132.06 372.604 1132.74 373.35 1133.25C374.096 1133.76 375.172 1134.12 376.75 1134.12C379.235 1134.12 380.628 1133.1 381.401 1131.87C382.196 1130.61 382.369 1129.07 382.275 1128.05C382.252 1127.78 382.435 1127.55 382.694 1127.51C382.954 1127.46 383.201 1127.63 383.26 1127.89C383.449 1128.7 383.802 1129.48 384.384 1130.05C384.955 1130.61 385.782 1131 387 1131C388.233 1131 389.051 1130.62 389.599 1130.08C390.157 1129.53 390.482 1128.76 390.632 1127.91C390.673 1127.69 390.863 1127.52 391.094 1127.5C391.324 1127.49 391.535 1127.63 391.603 1127.85C391.786 1128.45 392.3 1128.89 393.157 1129.15C394.018 1129.4 395.159 1129.44 396.429 1129.26C396.893 1129.19 397.266 1128.88 397.561 1128.3C397.859 1127.72 398.041 1126.93 398.127 1126.07C398.152 1125.83 398.347 1125.64 398.589 1125.63C398.827 1125.61 399.043 1125.76 399.106 1125.99C399.113 1126 399.133 1126.02 399.186 1126.06C399.281 1126.12 399.441 1126.2 399.684 1126.27C400.169 1126.41 400.9 1126.5 401.875 1126.5C402.634 1126.5 403.282 1126 403.769 1125.26C404.256 1124.51 404.5 1123.64 404.5 1123.12C404.5 1122.77 404.552 1122.48 404.705 1122.24C404.822 1122.05 404.992 1121.91 405.1 1121.83C405.118 1121.81 405.134 1121.8 405.148 1121.79C405.264 1121.69 405.389 1121.58 405.529 1121.36C405.674 1121.14 405.845 1120.79 406.023 1120.22C406.37 1119.12 406.623 1116.89 406.269 1114.06C405.917 1111.25 404.968 1107.88 402.946 1104.51C400.186 1099.91 396.052 1096.84 393.1 1094.65C392.846 1094.47 392.6 1094.28 392.365 1094.11C391.351 1093.35 390.487 1092.67 389.989 1092.07C389.035 1090.91 388.703 1089.72 388.463 1088.52C388.415 1088.28 388.37 1088.04 388.326 1087.8C388.147 1086.84 387.969 1085.87 387.537 1084.81C386.994 1083.49 386.36 1082.49 385.776 1081.64C385.659 1081.47 385.543 1081.31 385.428 1081.15C384.981 1080.51 384.562 1079.92 384.295 1079.33C384.098 1078.9 384.017 1078.35 383.987 1077.73C383.956 1077.11 383.977 1076.38 384.016 1075.55C384.035 1075.16 384.058 1074.73 384.083 1074.29C384.161 1072.9 384.25 1071.29 384.25 1069.5C384.25 1067.07 384.696 1064.47 385.133 1062.05L385.218 1061.58C385.628 1059.32 386 1057.27 386 1055.62C386 1053.89 385.884 1052.77 385.618 1050.2L385.596 1049.99C385.315 1047.27 384.877 1042.98 384.251 1034.91C383.622 1026.79 384.817 1014.52 386.52 1002.03C387.722 993.203 389.182 984.236 390.441 976.497C390.967 973.267 391.458 970.25 391.881 967.548C392.284 964.973 392.76 961.978 393.285 958.672C396.514 938.365 401.605 906.34 403.001 888.087C403.809 877.529 401.726 860.71 399.459 845.982C398.537 839.995 397.587 834.366 396.793 829.656C396.611 828.58 396.438 827.552 396.274 826.579C395.836 823.964 395.471 821.741 395.224 820.046C395.1 819.199 395.006 818.479 394.945 817.906C394.886 817.343 394.857 816.89 394.876 816.594C395.126 812.597 396 797.363 395.75 782.508C395.626 775.117 394.727 770.905 393.888 767.333C393.834 767.101 393.779 766.872 393.726 766.644C392.946 763.347 392.256 760.431 392.375 755.862C392.49 751.432 393.877 745.944 395.665 740.098C396.489 737.403 397.402 734.62 398.321 731.819L398.56 731.092C399.56 728.045 400.558 724.982 401.453 721.982C401.829 720.723 402.186 719.475 402.517 718.245C406.004 705.295 407.376 690.962 407.625 680.613C407.698 677.598 407.938 672.74 408.236 666.7C408.968 651.865 410.053 629.904 409.875 610.63C409.675 588.973 403.891 548.084 401.019 530.33C401.017 530.315 401.015 530.3 401.014 530.285C400.838 527.789 400.585 525.585 400.273 523.447C399.886 520.799 399.408 518.256 398.866 515.377C398.7 514.492 398.527 513.574 398.35 512.613C397.595 508.529 396.753 503.664 395.892 497.065C394.772 488.479 392.968 482.071 391.442 477.244C391.131 476.261 390.83 475.337 390.548 474.472C390.14 473.223 389.773 472.097 389.475 471.091C388.97 469.389 388.638 467.953 388.638 466.75C388.638 464.689 388.742 462.517 388.879 459.673C388.946 458.289 389.02 456.746 389.094 454.979C389.201 452.408 389.307 449.354 389.388 445.614C389.512 439.865 388.43 434.355 387.304 428.691L387.266 428.503C386.154 422.913 385.013 417.175 385.013 411C385.013 401.834 386.242 393.081 387.085 387.079C387.146 386.64 387.206 386.215 387.263 385.806C387.483 384.224 387.662 382.883 387.765 381.826C388.259 376.764 390.19 372.664 392.123 368.56L392.136 368.532L392.31 368.162C392.563 367.624 392.791 367.149 393.001 366.712C393.626 365.408 394.084 364.452 394.545 363.23C395.159 361.602 395.779 359.501 396.778 355.504C397.787 351.468 400.264 344.842 402.864 338.055C403.268 337.001 403.675 335.942 404.081 334.888C406.292 329.138 408.451 323.524 409.767 319.471C409.835 319.261 410.032 319.121 410.252 319.125C410.473 319.129 410.664 319.277 410.724 319.489C415.767 337.371 424.385 353.436 435.694 372.621C435.712 372.652 435.726 372.684 435.737 372.718C435.745 372.742 435.751 372.766 435.756 372.791C436.505 377.204 438.654 389.384 441.254 402.78C444.487 419.441 456.449 447.497 475.411 472.447C493.589 496.367 500.12 510.013 502.2 514.36C502.297 514.563 502.385 514.745 502.463 514.908C503.558 517.177 504.808 520.391 506.043 523.568C506.788 525.483 507.527 527.384 508.224 529.058C510.066 533.478 509.676 536.192 508.882 541.709C508.841 541.989 508.8 542.276 508.758 542.571C508.332 545.551 508.695 548.893 509.317 552.349C509.61 553.973 509.958 555.613 510.305 557.245L510.369 557.549C510.736 559.278 511.098 560.999 511.381 562.666C511.942 565.973 512.882 570.041 513.852 573.619C514.818 577.183 515.801 580.208 516.46 581.526C517.16 582.927 518.231 585.574 519.168 588.074C520.102 590.564 520.93 592.977 521.127 593.895C521.307 594.739 522.483 598.518 523.708 602.332C524.929 606.136 526.173 609.9 526.479 610.695C526.571 610.932 526.705 611.359 526.874 611.898C527.005 612.314 527.156 612.796 527.326 613.31C527.724 614.52 528.237 615.966 528.859 617.341C529.484 618.722 530.205 620 531.008 620.895C531.815 621.794 532.628 622.226 533.454 622.128C534.453 622.011 535.169 621.73 535.687 621.348C536.201 620.968 536.55 620.467 536.779 619.856C537.249 618.603 537.203 616.931 537.015 615.05C536.849 613.383 536.298 610.904 535.691 608.497C535.176 606.449 534.629 604.49 534.257 603.155C534.107 602.616 533.985 602.178 533.905 601.879C533.658 600.953 533.355 599.3 533.056 597.669L533.021 597.481C532.706 595.765 532.399 594.108 532.157 593.262C532.061 592.927 531.873 592.371 531.638 591.678C531.577 591.499 531.513 591.311 531.447 591.115C531.129 590.171 530.762 589.064 530.454 587.998C530.148 586.938 529.892 585.892 529.803 585.076C529.759 584.672 529.751 584.283 529.82 583.964C529.887 583.651 530.066 583.263 530.506 583.143C530.853 583.048 531.172 583.146 531.429 583.315C531.675 583.478 531.888 583.721 532.073 583.987C532.446 584.522 532.795 585.278 533.119 586.098C533.536 587.157 533.941 588.408 534.306 589.536C534.504 590.147 534.69 590.721 534.86 591.211C535.872 594.12 537.628 601.65 538.127 604.022C538.372 605.184 539.145 607.814 539.961 610.577L540.057 610.903C540.838 613.544 541.635 616.242 541.999 617.758C542.08 618.097 542.18 618.573 542.301 619.154C542.756 621.341 543.521 625.01 544.793 628.386C545.598 630.521 546.587 632.486 547.794 633.857C548.994 635.219 550.359 635.946 551.953 635.754C553.574 635.558 554.542 634.699 555.104 633.423C555.683 632.11 555.832 630.345 555.717 628.405C555.516 625.032 554.534 621.327 553.907 618.963C553.813 618.61 553.728 618.287 553.654 618C553.084 615.784 552.768 613.761 552.44 611.526C552.41 611.322 552.38 611.115 552.35 610.907C552.047 608.835 551.713 606.549 551.148 603.723C550.527 600.619 549.25 595.823 548.079 591.699C547.494 589.639 546.936 587.752 546.502 586.334C546.284 585.625 546.098 585.034 545.956 584.599C545.884 584.382 545.824 584.205 545.777 584.073C545.753 584.007 545.733 583.954 545.718 583.913C545.71 583.893 545.703 583.878 545.698 583.866C545.693 583.853 545.691 583.849 545.691 583.849C545.527 583.521 545.535 583.179 545.676 582.887C545.808 582.611 546.042 582.411 546.289 582.287C546.769 582.047 547.487 582.017 547.991 582.521C548.123 582.653 548.236 582.834 548.336 583.019C548.389 583.118 548.443 583.228 548.498 583.347C548.551 583.461 548.604 583.582 548.658 583.711C548.879 584.241 549.126 584.921 549.392 585.697C549.556 586.173 549.728 586.689 549.908 587.232C550.021 587.575 550.138 587.929 550.257 588.291C550.566 589.226 550.893 590.216 551.236 591.212C551.933 593.242 553.315 598.834 554.577 604.134C555.295 607.145 555.975 610.068 556.476 612.219C556.861 613.872 557.139 615.07 557.248 615.504C557.503 616.523 557.913 618.731 558.333 621.003C558.756 623.29 559.191 625.652 559.5 627.014C560.115 629.717 561.597 633.17 562.072 634.002C562.54 634.821 564.033 637 567.263 637C568.054 637 568.681 636.811 569.186 636.476C569.693 636.14 570.108 635.635 570.438 634.954C571.106 633.575 571.388 631.544 571.388 629C571.388 626.49 570.928 623.624 570.367 620.849C570.119 619.627 569.85 618.41 569.593 617.254C569.275 615.82 568.978 614.479 568.771 613.339C568.419 611.404 568.258 609.931 568.099 608.48L568.063 608.148C567.891 606.591 567.706 605.014 567.273 602.848C566.839 600.68 565.688 596.292 564.561 592.098C564.214 590.808 563.87 589.535 563.55 588.354C562.835 585.714 562.244 583.529 562.026 582.616C561.723 581.343 561.236 580.06 560.789 579.045C560.339 578.02 559.947 577.303 559.847 577.152C559.648 576.855 559.722 576.514 559.795 576.319C559.879 576.097 560.028 575.881 560.215 575.717C560.396 575.559 560.673 575.401 561.005 575.427C561.366 575.456 561.642 575.686 561.822 576.002C562.096 576.481 562.453 577.332 563.013 578.842C563.578 580.363 564.36 582.587 565.485 585.836C566.099 587.609 566.767 589.675 567.424 591.772C568.487 595.163 569.517 598.618 570.249 601.075C570.736 602.711 571.091 603.905 571.237 604.342C571.423 604.899 571.691 606.199 571.967 607.657C572.233 609.057 572.514 610.647 572.749 611.964C572.987 613.297 573.171 614.323 573.248 614.629C573.258 614.667 573.269 614.716 573.283 614.774C573.453 615.479 573.951 617.543 575.042 619.473C576.225 621.566 578.022 623.364 580.742 623.25C582.104 623.194 582.987 622.672 583.582 621.911C584.193 621.128 584.53 620.05 584.689 618.841C584.931 617 584.746 615.029 584.612 613.601C584.568 613.135 584.53 612.727 584.513 612.4C584.391 609.943 583.15 602.986 582.147 597.719C581.149 592.483 579.152 584.12 578.028 579.621C577.898 579.104 577.746 578.491 577.576 577.804C576.257 572.484 573.832 562.709 572.292 558.419C570.9 554.54 568.141 548.248 566.932 545.581C566.862 545.427 566.876 545.247 566.968 545.104C567.06 544.961 567.218 544.875 567.388 544.875C568.368 544.875 569.821 545.316 571.184 545.864C572.563 546.419 573.944 547.123 574.797 547.714C575.572 548.25 576.139 548.946 576.746 549.69C576.832 549.796 576.919 549.903 577.008 550.01C577.73 550.886 578.607 551.883 580.063 552.975C581.491 554.046 583.51 554.895 585.65 555.29C587.792 555.684 590.005 555.616 591.832 554.909C593.574 554.234 594.316 552.909 594.469 551.568C594.628 550.186 594.155 548.849 593.534 548.229C592.809 547.503 591.926 546.802 591.064 546.128L590.871 545.977C590.09 545.368 589.329 544.773 588.784 544.229C588.146 543.59 587.928 543.041 587.73 542.499L587.702 542.42C587.526 541.935 587.351 541.451 586.863 540.8C585.774 539.349 583.561 537.254 581.829 535.893C580.993 535.236 579.655 534.474 578.26 533.721C577.852 533.502 577.44 533.283 577.036 533.068C576.08 532.561 575.174 532.08 574.506 531.679C573.509 531.081 572.658 530.258 571.862 529.463C571.783 529.384 571.704 529.304 571.626 529.226C570.905 528.502 570.224 527.819 569.472 527.282C567.752 526.053 563.41 523.447 558.945 521.587L558.944 521.586C557.642 521.04 554.838 519.894 553.869 519.604C553.233 519.413 551.282 518.784 549.343 518.011C548.375 517.625 547.399 517.2 546.59 516.772C546.185 516.558 545.814 516.34 545.503 516.121C545.198 515.906 544.924 515.674 544.738 515.425C544.673 515.338 544.6 515.214 544.521 515.065C544.475 514.976 544.426 514.878 544.376 514.775C544.236 514.484 544.066 514.106 543.87 513.653C543.478 512.745 542.977 511.519 542.396 510.053C541.234 507.121 539.748 503.215 538.169 498.939C535.012 490.389 531.477 480.348 529.41 473.647C527.518 467.512 525.89 459.032 524.006 449.221C523.826 448.285 523.644 447.336 523.459 446.376C521.334 435.345 518.838 422.8 515.281 410.009C508.758 386.548 502.766 375.492 497.577 365.916C497.111 365.055 496.651 364.206 496.197 363.361C494.956 361.048 493.878 359.152 492.927 357.481C489.685 351.78 487.931 348.695 486.273 340.6C485.218 335.449 482.979 328.572 480.681 321.929C479.952 319.822 479.217 317.737 478.513 315.741C477.005 311.463 475.639 307.591 474.784 304.77C473.8 301.523 471.365 296.501 468.697 291.511C466.035 286.533 463.165 281.629 461.336 278.636C461.294 278.567 461.269 278.489 461.264 278.409C461.055 275.316 460.638 266.938 460.638 258.125C460.638 247.128 459.631 226.019 448.975 210.407C443.987 203.099 439.913 198.796 435.546 195.691C431.171 192.579 426.477 190.65 420.188 188.118C419.269 187.748 418.315 187.365 417.325 186.963C410.125 184.046 405.261 183.179 400.421 182.432C400.06 182.376 399.699 182.321 399.337 182.266C394.83 181.578 390.181 180.869 383.6 178.598C369.455 173.716 357.548 168.329 350.636 164.307C347.198 162.306 343.861 160.262 341.349 158.334C340.094 157.371 339.027 156.424 338.255 155.515C337.491 154.616 336.965 153.697 336.89 152.792C336.821 151.969 336.79 149.331 336.78 145.876C336.762 138.901 336.832 128.465 336.888 122.37C336.889 122.26 336.926 122.153 336.995 122.066C337.53 121.386 337.991 120.361 338.384 119.113C338.775 117.874 339.087 116.456 339.344 115.021C339.6 113.588 339.8 112.148 339.966 110.867C340.01 110.534 340.051 110.212 340.09 109.902C340.202 109.026 340.301 108.255 340.394 107.671C340.605 106.352 340.703 105.124 340.776 104.204C340.789 104.051 340.8 103.906 340.811 103.771C340.849 103.324 340.886 102.921 340.952 102.691C340.968 102.634 340.999 102.539 341.059 102.45C341.118 102.365 341.301 102.159 341.605 102.213C341.832 102.252 341.951 102.419 341.982 102.463C342.031 102.533 342.068 102.61 342.097 102.678C342.114 102.717 342.131 102.757 342.148 102.797C342.328 103.221 342.517 103.669 342.939 104.079C343.391 104.518 344.156 104.952 345.575 105.129C346.093 105.194 346.649 104.937 347.271 104.287C347.888 103.642 348.491 102.691 349.087 101.577C349.631 100.56 350.153 99.4374 350.667 98.3331L350.808 98.0311C351.362 96.8398 351.911 95.6773 352.456 94.7471C353.476 93.0084 354.369 90.1067 355.039 86.8675C355.706 83.6423 356.139 80.1378 356.263 77.2287C356.32 75.9052 356.225 74.7913 356.021 73.857C355.681 72.3082 355.038 71.2504 354.259 70.5359C353.478 69.8192 352.533 69.4209 351.548 69.2419C350.686 69.0851 349.865 69.514 349.137 70.2488C348.415 70.9773 347.872 71.9253 347.598 72.5703C347.502 72.7972 347.255 72.9201 347.016 72.8599C346.777 72.7996 346.617 72.5743 346.64 72.3289C347.035 68.07 347.471 61.1912 347.497 54.4075C347.523 47.6006 347.134 40.9674 345.912 37.1526C344.37 32.3432 340.058 23.4162 332.258 15.6992C324.467 7.99234 313.206 1.5 297.737 1.5C282.267 1.5 271.013 7.9923 263.229 15.6991ZM370.235 1128.54C370.235 1128.54 370.235 1128.54 370.236 1128.54C370.229 1128.53 370.23 1128.52 370.235 1128.54Z" fill="white"/>
</g>
<path id="Vector" d="M249.875 1103.49C250.444 1104.64 251.325 1106.05 252.5 1108.12C255.75 1113.88 253.125 1118.62 252.75 1119.88C252.375 1121.12 249.875 1135.62 237 1136.25C231.875 1136.5 229.5 1135.12 227.875 1133.5C226.25 1131.88 227 1128.5 226.75 1128.25C226.5 1128 225.375 1128 224.875 1128.25C224.375 1128.5 225.375 1134.62 218.75 1134.62C213.45 1134.62 212.526 1130.21 212.727 1128C212.323 1129.75 211.176 1131.5 208.5 1131.5C205.774 1131.5 204.683 1129.85 204.375 1128C203.875 1129.62 201.625 1130.12 199 1129.75C197.606 1129.55 197.041 1127.94 196.875 1126.12C196.75 1126.62 195.625 1127 193.625 1127C191.625 1127 190.5 1124.38 190.5 1123.12C190.5 1121.88 189.75 1122.75 189 1120.38C188.25 1118 188 1111.12 192.125 1104.25C195.184 1099.15 199.892 1095.91 202.836 1093.71C203.861 1092.94 204.673 1092.3 205.125 1091.75C206.875 1089.62 206.375 1087.38 207.5 1084.62C208.625 1081.88 210.125 1080.5 210.75 1079.12C211.375 1077.75 210.75 1074.25 210.75 1069.5C210.75 1064.75 209 1059.25 209 1055.62C209 1052 209.5 1051 210.75 1034.88C212 1018.75 206 986 203.125 967.625C200.25 949.25 193.625 909.375 192 888.125C190.375 866.875 200.375 820.625 200.125 816.625C199.875 812.625 199 797.375 199.25 782.5C199.5 767.625 202.875 765.5 202.625 755.875C202.399 747.164 197.156 734.154 193.568 722.125C193.191 720.862 192.833 719.61 192.5 718.375C189 705.375 187.625 691 187.375 680.625C187.125 670.25 184.875 637.75 185.125 610.625C185.325 588.925 191.116 548 193.987 530.25C194.164 527.741 194.418 525.524 194.732 523.375C195.748 516.424 197.393 510.176 199.112 497C201.362 479.75 206.362 471.25 206.362 466.75C206.362 463.699 206.132 460.419 205.906 455C205.799 452.426 205.693 449.369 205.612 445.625C205.362 434 209.987 423.375 209.987 411C209.987 401.204 208.577 391.879 207.742 385.875C207.522 384.294 207.341 382.943 207.237 381.875C206.752 376.899 204.852 372.865 202.911 368.745L202.737 368.375C200.737 364.125 200.237 363.625 198.237 355.625C196.237 347.625 188.382 329.25 185.257 319.625C180.195 337.574 171.548 353.686 160.237 372.875C159.487 377.292 157.337 389.475 154.737 402.875C151.487 419.625 139.487 447.75 120.487 472.75C101.487 497.75 95.2371 511.5 93.4871 515.125C91.7371 518.75 89.6121 524.75 87.7371 529.25C85.8621 533.75 86.3621 536.375 87.2371 542.5C88.1121 548.625 85.7371 556.125 84.6121 562.75C84.0471 566.077 83.1039 570.161 82.1306 573.75C81.1658 577.308 80.1716 580.381 79.4871 581.75C78.1121 584.5 75.2371 592.25 74.8621 594C74.4871 595.75 70.1121 609.25 69.4871 610.875C68.8621 612.5 66.2371 623.125 61.9871 622.625C57.7371 622.125 57.6121 618.75 57.9871 615C58.1578 613.292 58.7174 610.781 59.3236 608.375C60.0484 605.498 60.8398 602.771 61.1121 601.75C61.6121 599.875 62.3621 594.875 62.8621 593.125C63.3621 591.375 66.2371 584 64.8621 583.625C63.4871 583.25 62.1121 588.5 61.1121 591.375C60.1121 594.25 58.3621 601.75 57.8621 604.125C57.3621 606.5 54.7371 614.75 53.9871 617.875C53.2371 621 50.7371 637.125 43.4871 636.25C36.2371 635.375 40.2371 622.25 41.3621 617.875C42.4871 613.5 42.6121 609.875 43.8621 603.625C45.1121 597.375 48.9871 584.375 49.3621 583.625C49.7371 582.875 48.4871 582.25 47.8621 582.875C47.2371 583.5 46.1121 587.375 44.7371 591.375C43.3621 595.375 39.2371 613.625 38.7371 615.625C38.2371 617.625 37.1121 624.375 36.4871 627.125C35.8621 629.875 34.3621 633.375 33.8621 634.25C33.3621 635.125 31.7371 637.5 28.2371 637.5C24.7371 637.5 23.6121 634.125 23.6121 629C23.6121 623.875 25.4871 617.375 26.2371 613.25C26.9871 609.125 26.8621 607.125 27.7371 602.75C28.6121 598.375 32.3621 585.125 32.9871 582.5C33.6121 579.875 34.9871 577.25 35.2371 576.875C35.4871 576.5 34.6121 575.375 34.1121 576.25C33.6121 577.125 32.7371 579.5 30.4871 586C29.8759 587.766 29.2094 589.826 28.5526 591.922C26.7917 597.54 25.1012 603.407 24.7371 604.5C24.5646 605.017 24.3028 606.279 24.0237 607.75C23.4936 610.544 22.9008 614.095 22.7371 614.75C22.4871 615.75 20.7371 624 14.7371 623.75C8.73706 623.5 10.3621 614.875 10.4871 612.375C10.6121 609.875 11.8621 602.875 12.8621 597.625C13.8621 592.375 15.8621 584 16.9871 579.5C18.1121 575 20.9871 563.125 22.7371 558.25C24.1371 554.35 26.9037 548.042 28.1121 545.375C26.3621 545.375 22.6121 547 20.9871 548.125C19.3621 549.25 18.7371 551.125 15.7371 553.375C12.7371 555.625 7.36204 556.875 3.48704 555.375C-0.387958 553.875 0.112042 549.375 1.61204 547.875C3.11204 546.375 5.23704 545 6.36204 543.875C7.48704 542.75 7.11204 542 8.23704 540.5C9.36204 539 11.612 536.875 13.362 535.5C15.112 534.125 18.862 532.375 20.737 531.25C22.612 530.125 23.987 528.125 25.737 526.875C27.487 525.625 31.862 523 36.362 521.125C37.6537 520.583 40.4871 519.425 41.4871 519.125C42.7371 518.75 49.2371 516.625 50.3621 515.125C51.4871 513.625 61.4871 486.875 65.6121 473.5C69.7371 460.125 72.6121 435.5 79.7371 409.875C86.8621 384.25 93.3621 373.375 98.8621 363.125C104.362 352.875 106.612 350.875 108.737 340.5C110.862 330.125 117.737 312.875 120.237 304.625C122.237 298.025 130.07 284.375 133.737 278.375C133.945 275.292 134.362 266.925 134.362 258.125C134.362 247.125 135.362 225.875 146.112 210.125C156.129 195.45 162.564 192.712 175.125 187.654C176.045 187.284 176.998 186.901 177.987 186.5C192.487 180.625 197.612 183 211.737 178.125C225.862 173.25 237.737 167.875 244.612 163.875C251.487 159.875 257.862 155.75 258.112 152.75C258.178 151.953 258.21 149.342 258.219 145.875C258.238 138.903 258.168 128.47 258.112 122.375C255.625 118.75 255.112 110.875 254.612 107.75C254.112 104.625 254.237 102 253.862 102.875C253.487 103.75 252.987 105.25 249.987 105.625C246.987 106 244.737 98.625 242.612 95C240.487 91.375 238.987 83.125 238.737 77.25C238.679 75.8916 238.775 74.7337 238.991 73.75C239.708 70.4792 241.748 69.1344 243.862 68.75C246.062 68.35 247.779 71 248.362 72.375C247.57 63.8333 246.612 44.8 249.112 37C252.237 27.25 266.487 1 297.737 1C328.987 1 343.263 27.25 346.388 37C348.888 44.8 347.93 63.8333 347.138 72.375C347.721 71 349.438 68.35 351.638 68.75C353.752 69.1344 355.792 70.4792 356.509 73.75C356.725 74.7337 356.821 75.8916 356.763 77.25C356.513 83.125 355.013 91.375 352.888 95C350.763 98.625 348.513 106 345.513 105.625C342.513 105.25 342.013 103.75 341.638 102.875C341.263 102 341.388 104.625 340.888 107.75C340.388 110.875 339.75 119.375 337.388 122.375C337.332 128.47 337.262 138.903 337.281 145.875C337.29 149.342 337.322 151.953 337.388 152.75C337.638 155.75 344.013 159.875 350.888 163.875C357.763 167.875 369.638 173.25 383.763 178.125C397.888 183 403.013 180.625 417.513 186.5C418.502 186.901 419.455 187.284 420.375 187.654C432.936 192.712 439.371 195.45 449.388 210.125C460.138 225.875 461.138 247.125 461.138 258.125C461.138 266.925 461.555 275.292 461.763 278.375C465.43 284.375 473.263 298.025 475.263 304.625C477.763 312.875 484.638 330.125 486.763 340.5C488.888 350.875 491.138 352.875 496.638 363.125C502.138 373.375 508.638 384.25 515.763 409.875C522.888 435.5 525.763 460.125 529.888 473.5C534.013 486.875 544.013 513.625 545.138 515.125C546.263 516.625 552.763 518.75 554.013 519.125C555.013 519.425 557.846 520.583 559.138 521.125C563.638 523 568.013 525.625 569.763 526.875C571.513 528.125 572.888 530.125 574.763 531.25C576.638 532.375 580.388 534.125 582.138 535.5C583.888 536.875 586.138 539 587.263 540.5C588.388 542 588.013 542.75 589.138 543.875C590.263 545 592.388 546.375 593.888 547.875C595.388 549.375 595.888 553.875 592.013 555.375C588.138 556.875 582.763 555.625 579.763 553.375C576.763 551.125 576.138 549.25 574.513 548.125C572.888 547 569.138 545.375 567.388 545.375C568.596 548.042 571.363 554.35 572.763 558.25C574.513 563.125 577.388 575 578.513 579.5C579.638 584 581.638 592.375 582.638 597.625C583.638 602.875 584.888 609.875 585.013 612.375C585.138 614.875 586.763 623.5 580.763 623.75C574.763 624 573.013 615.75 572.763 614.75C572.599 614.095 572.006 610.544 571.476 607.75C571.197 606.279 570.935 605.017 570.763 604.5C570.399 603.407 568.708 597.54 566.947 591.922C566.291 589.826 565.624 587.766 565.013 586C562.763 579.5 561.888 577.125 561.388 576.25C560.888 575.375 560.013 576.5 560.263 576.875C560.513 577.25 561.888 579.875 562.513 582.5C563.138 585.125 566.888 598.375 567.763 602.75C568.638 607.125 568.513 609.125 569.263 613.25C570.013 617.375 571.888 623.875 571.888 629C571.888 634.125 570.763 637.5 567.263 637.5C563.763 637.5 562.138 635.125 561.638 634.25C561.138 633.375 559.638 629.875 559.013 627.125C558.388 624.375 557.263 617.625 556.763 615.625C556.263 613.625 552.138 595.375 550.763 591.375C549.388 587.375 548.263 583.5 547.638 582.875C547.013 582.25 545.763 582.875 546.138 583.625C546.513 584.375 550.388 597.375 551.638 603.625C552.888 609.875 553.013 613.5 554.138 617.875C555.263 622.25 559.263 635.375 552.013 636.25C544.763 637.125 542.263 621 541.513 617.875C540.763 614.75 538.138 606.5 537.638 604.125C537.138 601.75 535.388 594.25 534.388 591.375C533.388 588.5 532.013 583.25 530.638 583.625C529.263 584 532.138 591.375 532.638 593.125C533.138 594.875 533.888 599.875 534.388 601.75C534.66 602.771 535.452 605.498 536.176 608.375C536.783 610.781 537.342 613.292 537.513 615C537.888 618.75 537.763 622.125 533.513 622.625C529.263 623.125 526.638 612.5 526.013 610.875C525.388 609.25 521.013 595.75 520.638 594C520.263 592.25 517.388 584.5 516.013 581.75C515.328 580.381 514.334 577.308 513.369 573.75C512.396 570.161 511.453 566.077 510.888 562.75C509.763 556.125 507.388 548.625 508.263 542.5C509.138 536.375 509.638 533.75 507.763 529.25C505.888 524.75 503.763 518.75 502.013 515.125C500.263 511.5 494.013 497.75 475.013 472.75C456.013 447.75 444.013 419.625 440.763 402.875C438.163 389.475 436.013 377.292 435.263 372.875C423.952 353.686 415.305 337.574 410.243 319.625C407.118 329.25 399.263 347.625 397.263 355.625C395.263 363.625 394.763 364.125 392.763 368.375L392.589 368.745C390.648 372.865 388.748 376.899 388.263 381.875C388.159 382.943 387.978 384.294 387.758 385.875C386.923 391.879 385.513 401.204 385.513 411C385.513 423.375 390.138 434 389.888 445.625C389.807 449.369 389.701 452.426 389.594 455C389.368 460.419 389.138 463.699 389.138 466.75C389.138 471.25 394.138 479.75 396.388 497C398.107 510.176 399.752 516.424 400.768 523.375C401.082 525.524 401.336 527.741 401.513 530.25C404.384 548 410.175 588.925 410.375 610.625C410.625 637.75 408.375 670.25 408.125 680.625C407.875 691 406.5 705.375 403 718.375C402.667 719.61 402.309 720.862 401.932 722.125C398.344 734.154 393.101 747.164 392.875 755.875C392.625 765.5 396 767.625 396.25 782.5C396.5 797.375 395.625 812.625 395.375 816.625C395.125 820.625 405.125 866.875 403.5 888.125C401.875 909.375 395.25 949.25 392.375 967.625C389.5 986 383.5 1018.75 384.75 1034.88C386 1051 386.5 1052 386.5 1055.62C386.5 1059.25 384.75 1064.75 384.75 1069.5C384.75 1074.25 384.125 1077.75 384.75 1079.12C385.375 1080.5 386.875 1081.88 388 1084.62C389.125 1087.38 388.625 1089.62 390.375 1091.75C390.827 1092.3 391.639 1092.94 392.664 1093.71C395.608 1095.91 400.316 1099.15 403.375 1104.25C407.5 1111.12 407.25 1118 406.5 1120.38C405.75 1122.75 405 1121.88 405 1123.12C405 1124.38 403.875 1127 401.875 1127C399.875 1127 398.75 1126.62 398.625 1126.12C398.445 1127.9 397.862 1129.56 396.5 1129.75C393.875 1130.12 391.625 1129.62 391.125 1128C390.802 1129.83 389.69 1131.5 387 1131.5C384.324 1131.5 383.177 1129.75 382.773 1128C382.974 1130.21 382.05 1134.62 376.75 1134.62C370.125 1134.62 371.125 1128.5 370.625 1128.25C370.125 1128 369 1128 368.75 1128.25C368.5 1128.5 369.25 1131.88 367.625 1133.5C366 1135.12 363.625 1136.5 358.5 1136.25C345.625 1135.62 343.125 1121.12 342.75 1119.88C342.375 1118.62 339.75 1113.88 343 1108.12C344.175 1106.05 345.056 1104.64 345.625 1103.49M249.875 1103.49C249.591 1102.92 249.384 1102.41 249.258 1101.92M249.875 1103.49C249.648 1102.98 249.443 1102.45 249.258 1101.92M249.258 1101.92C248.937 1100.67 249.131 1099.51 249.875 1097.62C251.5 1093.5 254.375 1089.38 254.375 1084.25C254.375 1079.12 253 1078.38 253.125 1075.38C253.25 1072.38 254.25 1060.75 253.875 1054C253.5 1047.25 247.25 1034.12 247.5 1019.62C247.75 1005.12 251.875 971.5 259.25 948.75C266.625 926 266.25 906.75 264.875 889.75C263.5 872.75 255.5 851.125 258.5 835.25C261.5 819.375 267.25 809.375 268.5 799.625C269.75 789.875 269.125 768 270.25 764.25C270.564 763.203 271.063 760.713 271.631 757.5C273.096 749.205 275.015 736.086 275.375 730.5C275.713 725.262 279.248 709.748 282.276 696.459L282.58 695.125C283.914 689.271 285.121 683.943 285.875 680.25C288.375 668 294.25 642.375 294.125 616.625V603.534C295.26 603.676 296.467 603.75 297.75 603.75C299.033 603.75 300.24 603.676 301.375 603.534V616.625C301.25 642.375 307.125 668 309.625 680.25C310.379 683.943 311.586 689.271 312.92 695.125L313.224 696.459C316.252 709.748 319.787 725.262 320.125 730.5C320.485 736.086 322.404 749.205 323.869 757.5C324.437 760.713 324.936 763.203 325.25 764.25C326.375 768 325.75 789.875 327 799.625C328.25 809.375 334 819.375 337 835.25C340 851.125 332 872.75 330.625 889.75C329.25 906.75 328.875 926 336.25 948.75C343.625 971.5 347.75 1005.12 348 1019.62C348.25 1034.12 342 1047.25 341.625 1054C341.25 1060.75 342.25 1072.38 342.375 1075.38C342.5 1078.38 341.125 1079.12 341.125 1084.25C341.125 1089.38 344 1093.5 345.625 1097.62C346.369 1099.51 346.563 1100.67 346.242 1101.92M345.625 1103.49C345.909 1102.92 346.116 1102.41 346.242 1101.92M345.625 1103.49C345.852 1102.98 346.057 1102.45 346.242 1101.92" stroke="black" stroke-linecap="round" stroke-linejoin="round"/>
</g>
</svg>
